<?xml version="1.0" encoding="UTF-8"?>
<svg width="14px" height="14px" viewBox="0 0 14 14" version="1.1" xmlns="http://www.w3.org/2000/svg" xmlns:xlink="http://www.w3.org/1999/xlink">
    <!-- Generator: Sketch 54.1 (76490) - https://sketchapp.com -->
    <title>linkedin</title>
    <desc>Created with Sketch.</desc>
    <defs>
        <path d="M3.11607514,4.86606173 L3.11607514,13.7142866 L0.169643059,13.7142866 L0.169643059,4.86606173 L3.11607514,4.86606173 Z M3.30357537,2.13391562 C3.31250395,2.98213091 2.66964604,3.66070315 1.6428591,3.66070315 L1.62500194,3.66070315 C0.633929327,3.66070315 0,2.98213091 0,2.13391562 C0,1.26784316 0.660715073,0.607128084 1.66071627,0.607128084 C2.66964604,0.607128084 3.29464678,1.26784316 3.30357537,2.13391562 Z M7.67858058,6.12369867 C8.06618803,5.51777306 8.76541114,4.66070434 10.3303695,4.66070434 C12.2678718,4.66070434 13.7143021,5.928563 13.7143021,8.64285195 L13.7143021,13.7142866 L10.7767986,13.7142866 L10.7767986,8.98213807 C10.7767986,7.79463665 10.3482266,6.98213568 9.28572536,6.98213568 C8.47322439,6.98213568 7.99108095,7.52677919 7.77679498,8.05356553 C7.70536633,8.24999434 7.67858058,8.50892322 7.67858058,8.77678068 L7.67858058,13.7142866 L4.74107708,13.7142866 C4.77679141,5.69641986 4.74107708,4.86606173 4.74107708,4.86606173 L7.67858058,4.86606173 L7.67858058,6.12369867 L7.67858058,6.12369867 Z" id="path-1"></path>
    </defs>
    <g id="Page-1" stroke="none" stroke-width="1" fill="none" fill-rule="evenodd">
        <g id="linkedin" fill-rule="nonzero">
            <use fill="#000000" xlink:href="#path-1"></use>
            <use fill="#E8E8E8" xlink:href="#path-1"></use>
        </g>
    </g>
</svg>