<?xml version="1.0" encoding="UTF-8"?>
<svg width="14px" height="15px" viewBox="0 0 14 15" version="1.1" xmlns="http://www.w3.org/2000/svg" xmlns:xlink="http://www.w3.org/1999/xlink">
    <!-- Generator: Sketch 54.1 (76490) - https://sketchapp.com -->
    <title>pinterest</title>
    <desc>Created with Sketch.</desc>
    <defs>
        <path d="M13.7143021,7.28570747 C13.7143021,11.0714263 10.6428698,14.1428585 6.85715103,14.1428585 C6.17857879,14.1428585 5.53572088,14.0446441 4.91072014,13.8571439 C5.16964902,13.4464291 5.46429223,12.9196428 5.60714954,12.3928564 C5.60714954,12.3928564 5.68750678,12.0892846 6.08929297,10.5089256 C6.32143611,10.9642833 7.01786551,11.3660695 7.75893782,11.3660695 C9.96429759,11.3660695 11.4642994,9.35713851 11.4642994,6.66070673 C11.4642994,4.6339186 9.74108304,2.73213062 7.11607991,2.73213062 C3.86607604,2.73213062 2.22321694,5.07141912 2.22321694,7.01785001 C2.22321694,8.19642285 2.66964604,9.24999553 3.62500432,9.64285314 C3.77679022,9.70535322 3.91964753,9.64285314 3.96429044,9.4642815 C4.00000477,9.34820993 4.07143342,9.04463814 4.10714775,8.91963799 C4.15179066,8.74106635 4.1339335,8.68749486 4.00893335,8.53570896 C3.73214731,8.20535143 3.55357566,7.78570807 3.55357566,7.18749307 C3.55357566,5.45534815 4.84822007,3.90177487 6.92857969,3.90177487 C8.76786759,3.90177487 9.78572595,5.02677621 9.78572595,6.53570658 C9.78572595,8.50892322 8.91072491,10.1785681 7.60715193,10.1785681 C6.89286536,10.1785681 6.35715044,9.58928165 6.52679349,8.85713792 C6.73215088,7.99106546 7.13393708,7.05356434 7.13393708,6.42856359 C7.13393708,5.86606292 6.83036529,5.39284807 6.20536454,5.39284807 C5.47322081,5.39284807 4.88393439,6.15177755 4.88393439,7.16963591 C4.88393439,7.16963591 4.88393439,7.8214224 5.10714895,8.25892292 C4.35714805,11.4374981 4.22321932,11.9910702 4.22321932,11.9910702 C4.09821917,12.508928 4.08929059,13.0892858 4.10714775,13.5714293 C1.68750201,12.508928 0,10.0982108 0,7.28570747 C0,3.49998868 3.07143223,0.428556442 6.85715103,0.428556442 C10.6428698,0.428556442 13.7143021,3.49998868 13.7143021,7.28570747 Z" id="path-1"></path>
    </defs>
    <g id="Page-1" stroke="none" stroke-width="1" fill="none" fill-rule="evenodd">
        <g id="pinterest" fill-rule="nonzero">
            <use fill="#000000" xlink:href="#path-1"></use>
            <use fill="#E8E8E8" xlink:href="#path-1"></use>
        </g>
    </g>
</svg>