<?xml version="1.0" encoding="UTF-8"?>
<svg width="14px" height="12px" viewBox="0 0 14 12" version="1.1" xmlns="http://www.w3.org/2000/svg" xmlns:xlink="http://www.w3.org/1999/xlink">
    <!-- Generator: Sketch 54.1 (76490) - https://sketchapp.com -->
    <title>twitter</title>
    <desc>Created with Sketch.</desc>
    <defs>
        <path d="M13.965303,1.92855942 C13.5724453,2.49998868 13.0813733,3.00891785 12.5188727,3.41963263 C12.5278012,3.54463278 12.5278012,3.66963293 12.5278012,3.79463308 C12.5278012,7.60713762 9.62601207,12 4.32243432,12 C2.6885038,12 1.17064485,11.5267852 -0.106142389,10.7053556 C0.126000745,10.7321413 0.349215297,10.7410699 0.590287013,10.7410699 C1.93850291,10.7410699 3.17957581,10.2857122 4.17064842,9.5089256 C2.90278977,9.48213986 1.8402885,8.65178172 1.47421664,7.50892322 C1.65278828,7.53570896 1.83135992,7.55356613 2.01886014,7.55356613 C2.27778902,7.55356613 2.5367179,7.5178518 2.77778962,7.45535173 C1.45635947,7.18749426 0.465286864,6.02677859 0.465286864,4.62499121 C0.465286864,4.61606263 0.465286864,4.59820546 0.465286864,4.58927688 C0.849215893,4.80356285 1.295645,4.93749158 1.76885985,4.95534874 C0.992073206,4.43749098 0.483144028,3.55356136 0.483144028,2.55356017 C0.483144028,2.01784524 0.626001341,1.52677323 0.876001639,1.09820129 C2.29564619,2.84820338 4.4295773,3.99106188 6.8224373,4.11606203 C6.77779439,3.90177606 6.75100864,3.67856151 6.75100864,3.45534696 C6.75100864,1.86605935 8.03672446,0.571414948 9.63494065,0.571414948 C10.4652988,0.571414948 11.2152997,0.919629648 11.742086,1.48213032 C12.3938725,1.35713017 13.0188733,1.11605845 13.5724453,0.785700917 C13.3581594,1.45534457 12.9028017,2.01784524 12.3045867,2.37498853 C12.8849445,2.31248845 13.4474452,2.15177397 13.965303,1.92855942 Z" id="path-1"></path>
    </defs>
    <g id="Page-1" stroke="none" stroke-width="1" fill="none" fill-rule="evenodd">
        <g id="twitter" fill-rule="nonzero">
            <use fill="#000000" xlink:href="#path-1"></use>
            <use fill="#E8E8E8" xlink:href="#path-1"></use>
        </g>
    </g>
</svg>