<?xml version="1.0" encoding="UTF-8"?>
<svg width="16px" height="12px" viewBox="0 0 16 12" version="1.1" xmlns="http://www.w3.org/2000/svg" xmlns:xlink="http://www.w3.org/1999/xlink">
    <!-- Generator: Sketch 54.1 (76490) - https://sketchapp.com -->
    <title>youtube</title>
    <desc>Created with Sketch.</desc>
    <defs>
        <path d="M6.34822185,8.35713851 L10.6696556,6.124993 L6.34822185,3.86606173 L6.34822185,8.35713851 Z M8.00000954,0.660700768 C11.366085,0.660700768 13.5982305,0.821415246 13.5982305,0.821415246 C13.9107309,0.857129574 14.5982317,0.857129574 15.2053753,1.49998748 C15.2053753,1.49998748 15.6964473,1.98213091 15.8393046,3.08927509 C16.0089477,4.38391949 16.0000191,5.67856389 16.0000191,5.67856389 L16.0000191,6.89285105 C16.0000191,6.89285105 16.0089477,8.18749546 15.8393046,9.48213986 C15.6964473,10.5803555 15.2053753,11.0714275 15.2053753,11.0714275 C14.5982317,11.7053568 13.9107309,11.7053568 13.5982305,11.7410711 C13.5982305,11.7410711 11.366085,11.9107142 8.00000954,11.9107142 C3.83929029,11.8749999 2.56250305,11.7499997 2.56250305,11.7499997 C2.20535977,11.6874996 1.40178739,11.7053568 0.794643804,11.0714275 C0.794643804,11.0714275 0.30357179,10.5803555 0.160714477,9.48213986 C-0.00892858207,8.18749546 -8.04911693e-16,6.89285105 -8.04911693e-16,6.89285105 L-8.04911693e-16,5.67856389 C-8.04911693e-16,5.67856389 -0.00892858207,4.38391949 0.160714477,3.08927509 C0.30357179,1.98213091 0.794643804,1.49998748 0.794643804,1.49998748 C1.40178739,0.857129574 2.0892882,0.857129574 2.40178858,0.821415246 C2.40178858,0.821415246 4.6339341,0.660700768 8.00000954,0.660700768 Z" id="path-1"></path>
    </defs>
    <g id="Page-1" stroke="none" stroke-width="1" fill="none" fill-rule="evenodd">
        <g id="youtube" fill-rule="nonzero">
            <use fill="#000000" xlink:href="#path-1"></use>
            <use fill="#E8E8E8" xlink:href="#path-1"></use>
        </g>
    </g>
</svg>